<?xml version="1.0" encoding="UTF-8" standalone="no"?>
<svg
   xmlns:dc="http://purl.org/dc/elements/1.1/"
   xmlns:cc="http://creativecommons.org/ns#"
   xmlns:rdf="http://www.w3.org/1999/02/22-rdf-syntax-ns#"
   xmlns:svg="http://www.w3.org/2000/svg"
   xmlns="http://www.w3.org/2000/svg"
   xmlns:sodipodi="http://sodipodi.sourceforge.net/DTD/sodipodi-0.dtd"
   xmlns:inkscape="http://www.inkscape.org/namespaces/inkscape"
   sodipodi:docname="drawing.svg"
   inkscape:version="1.0 (4035a4fb49, 2020-05-01)"
   id="svg864"
   version="1.1"
   viewBox="0 0 282.11532 282.07688"
   height="282.07687mm"
   width="282.11533mm">
  <defs
     id="defs858" />
  <sodipodi:namedview
     inkscape:window-maximized="1"
     inkscape:window-y="0"
     inkscape:window-x="0"
     inkscape:window-height="1041"
     inkscape:window-width="1920"
     lock-margins="true"
     fit-margin-bottom="15"
     fit-margin-right="15"
     fit-margin-left="15"
     fit-margin-top="15"
     showgrid="false"
     inkscape:document-rotation="0"
     inkscape:current-layer="layer1"
     inkscape:document-units="mm"
     inkscape:cy="821.63011"
     inkscape:cx="688.84563"
     inkscape:zoom="0.35"
     inkscape:pageshadow="2"
     inkscape:pageopacity="0.0"
     borderopacity="1.0"
     bordercolor="#666666"
     pagecolor="#ffffff"
     id="base" />
  <metadata
     id="metadata861">
    <rdf:RDF>
      <cc:Work
         rdf:about="">
        <dc:format>image/svg+xml</dc:format>
        <dc:type
           rdf:resource="http://purl.org/dc/dcmitype/StillImage" />
        <dc:title></dc:title>
      </cc:Work>
    </rdf:RDF>
  </metadata>
  <g
     transform="translate(-73.63281,69.222963)"
     id="layer1"
     inkscape:groupmode="layer"
     inkscape:label="Layer 1">
    <path
       style="fill:#000000;stroke-width:0.264583"
       d="M 206.08908,197.59356 C 165.11598,194.84401 127.843,171.98674 106.47811,136.50818 98.323422,122.9665 92.523412,106.98522 90.066462,91.287733 c -1.71027,-10.927 -1.90325,-24.26318 -0.50954,-35.21289 1.39645,-10.971195 4.61131,-23.072234 8.71611,-32.808345 1.850558,-4.389268 5.839308,-12.439708 6.589638,-13.2997491 l 0.55245,-0.63323 56.48854,0.477681 c 31.0687,0.2627181 58.6912,0.5984801 61.38334,0.7461201 6.83119,0.374639 11.80849,1.475809 17.48399,3.8681 22.10547,9.317749 34.59706,33.002263 29.85087,56.598373 -3.00672,14.94817 -13.17698,28.26999 -26.80573,35.112287 -3.44642,1.73027 -5.16456,2.37649 -10.43079,3.92321 -2.3768,0.69808 -4.38272,1.33049 -4.45759,1.40537 -0.11316,0.11316 32.6704,47.22527 34.01098,48.87599 0.42514,0.52349 0.49776,0.49276 4.18441,-1.77047 16.88485,-10.36562 29.90064,-24.45559 38.46655,-41.64117 5.29246,-10.61813 8.56207,-21.739887 10.03404,-34.131257 0.48303,-4.06623 0.64034,-13.97949 0.29187,-18.39253 -1.25691,-15.91748 -5.87749,-30.680973 -13.80797,-44.118634 -10.28267,-17.4232891 -25.79948,-31.630996 -43.98815,-40.277037 -10.56367,-5.021471 -21.88027,-8.166635 -33.90644,-9.423438 -4.03427,-0.421604 -14.94331,-0.430641 -18.91771,-0.01567 -12.05566,1.258741 -22.75322,4.198592 -33.86667,9.30707 l -3.57187,1.641869 -17.33021,-0.158909 c -9.53161,-0.0874 -18.69042,-0.159769 -20.35289,-0.160816 l -3.02269,-0.0019 0.64144,-0.699479 c 1.36636,-1.489963 7.4169,-6.634479 10.6956,-9.093977 26.79768,-20.102134 59.45343,-28.79579 92.38115,-24.593878 23.97764,3.059791 45.97742,12.780776 65.31052,28.858583 3.4078,2.833995 11.82288,11.249081 14.65688,14.6568769 17.92417,21.5532941 27.82559,46.2009151 29.65442,73.8187591 2.30506,34.80963 -10.98235,70.128057 -36.04483,95.808457 -13.61877,13.95454 -30.32969,24.63776 -48.33937,30.90316 -3.39219,1.18011 -3.56785,1.21367 -3.98619,0.76145 -0.24069,-0.26018 -7.10465,-9.93853 -15.25325,-21.50744 -25.151,-35.70791 -61.25492,-86.868927 -61.96511,-87.807557 l -0.67485,-0.89194 19.03969,0.19489 c 20.45762,0.20939 22.89099,0.11591 27.52887,-1.05752 9.57616,-2.42287 16.04507,-8.19167 18.26306,-16.28652 0.70565,-2.57536 0.64879,-7.18162 -0.12228,-9.90657 -2.52285,-8.915625 -10.64531,-15.163413 -21.47934,-16.521882 -2.03602,-0.255302 -88.35556,-1.183831 -94.9674,-1.021562 l -3.29802,0.0809 -1.01591,3.175 c -2.28255,7.133614 -3.81967,14.474484 -4.57063,21.828124 -0.5608,5.49149 -0.42287,17.42563 0.2584,22.35729 1.67643,12.1356 4.96643,22.643807 10.43759,33.337507 11.96567,23.38761 32.87995,41.61879 57.44597,50.0762 6.35878,2.18915 14.82612,4.16699 20.19358,4.7169 0.94191,0.0965 1.82434,0.24956 1.96096,0.34014 0.13662,0.0906 4.18031,5.71563 8.98597,12.50013 l 8.73757,12.33544 -1.58931,0.16612 c -2.09894,0.21938 -9.7978,0.14661 -13.9471,-0.13184 z"
       id="path847" />
  </g>
</svg>
