<?xml version="1.0" encoding="UTF-8" standalone="no"?><!-- Generator: Gravit.io --><svg xmlns="http://www.w3.org/2000/svg" xmlns:xlink="http://www.w3.org/1999/xlink" style="isolation:isolate" viewBox="0 0 800 800" width="800pt" height="800pt"><g><rect x="42.5" y="42.5" width="715" height="715" transform="matrix(1,0,0,1,0,0)" fill="none" vector-effect="non-scaling-stroke" stroke-width="6" stroke="rgb(70,70,70)" stroke-linejoin="miter" stroke-linecap="square" stroke-miterlimit="2"/><g><path d=" M 383.621 583.761 C 305.601 578.525 234.627 535.001 193.944 467.443 C 178.416 441.657 167.372 411.226 162.693 381.335 C 159.437 360.528 159.069 335.134 161.723 314.283 C 164.382 293.392 170.504 270.35 178.32 251.81 C 181.844 243.452 189.439 228.123 190.868 226.485 L 191.92 225.279 L 299.484 226.189 C 358.645 226.689 411.243 227.329 416.369 227.61 C 429.377 228.323 438.855 230.42 449.662 234.975 C 491.755 252.718 515.541 297.818 506.503 342.749 C 500.778 371.213 481.412 396.58 455.461 409.609 C 448.898 412.904 445.626 414.134 435.598 417.08 C 431.073 418.409 427.253 419.613 427.11 419.756 C 426.895 419.971 489.321 509.681 491.873 512.824 C 492.683 513.821 492.821 513.763 499.841 509.453 C 531.993 489.715 556.777 462.885 573.089 430.161 C 583.166 409.942 589.392 388.764 592.195 365.169 C 593.115 357.426 593.415 338.549 592.751 330.146 C 590.358 299.836 581.559 271.724 566.458 246.136 C 546.878 212.959 517.331 185.905 482.697 169.441 C 462.582 159.88 441.033 153.891 418.133 151.497 C 410.451 150.695 389.678 150.677 382.11 151.468 C 359.154 153.864 338.784 159.462 317.622 169.19 L 310.82 172.316 L 277.82 172.014 C 259.67 171.847 242.23 171.71 239.065 171.708 L 233.309 171.704 L 234.53 170.372 C 237.132 167.535 248.654 157.739 254.897 153.055 C 305.924 114.777 368.107 98.223 430.807 106.224 C 476.465 112.051 518.357 130.561 555.17 161.176 C 561.659 166.573 577.683 182.596 583.08 189.085 C 617.21 230.127 636.065 277.06 639.547 329.65 C 643.936 395.934 618.635 463.186 570.911 512.086 C 544.979 538.658 513.158 559.001 478.864 570.932 C 472.405 573.179 472.07 573.243 471.274 572.382 C 470.815 571.886 457.745 553.457 442.229 531.428 C 394.337 463.433 325.588 366.013 324.236 364.226 L 322.951 362.528 L 359.206 362.899 C 398.161 363.297 402.795 363.119 411.626 360.885 C 429.861 356.271 442.179 345.287 446.402 329.873 C 447.746 324.969 447.638 316.197 446.169 311.009 C 441.365 294.032 425.899 282.135 405.269 279.548 C 401.392 279.062 237.024 277.294 224.434 277.603 L 218.154 277.757 L 216.219 283.803 C 211.873 297.386 208.946 311.365 207.516 325.367 C 206.448 335.824 206.711 358.549 208.008 367.94 C 211.2 391.048 217.465 411.057 227.883 431.42 C 250.668 475.954 290.492 510.67 337.27 526.774 C 349.379 530.943 365.502 534.709 375.723 535.756 C 377.516 535.94 379.197 536.231 379.457 536.404 C 379.717 536.576 387.417 547.287 396.568 560.206 L 413.206 583.695 L 410.179 584.012 C 406.182 584.429 391.522 584.291 383.621 583.761 L 383.621 583.761 Z " fill="rgb(70,70,70)"/></g><path d=" M 406.72 678.144 L 406.72 649.764 L 406.72 649.764 Q 406.72 646.189 408.81 644.126 L 408.81 644.126 L 408.81 644.126 Q 410.9 642.064 414.695 642.064 L 414.695 642.064 L 424.65 642.064 L 424.65 642.064 Q 432.625 642.064 436.668 645.254 L 436.668 645.254 L 436.668 645.254 Q 440.71 648.444 440.71 654.659 L 440.71 654.659 L 440.71 654.659 Q 440.71 660.544 437.135 663.789 L 437.135 663.789 L 437.135 663.789 Q 433.56 667.034 427.235 667.034 L 427.235 667.034 L 436.365 676.274 L 436.365 676.274 Q 437.245 677.154 437.245 678.199 L 437.245 678.199 L 437.245 678.199 Q 437.245 679.354 436.145 680.289 L 436.145 680.289 L 436.145 680.289 Q 435.1 681.059 434.11 681.059 L 434.11 681.059 L 434.11 681.059 Q 432.735 681.059 431.47 679.739 L 431.47 679.739 L 419.37 667.199 L 413.155 667.199 L 413.155 678.144 L 413.155 678.144 Q 413.155 679.519 412.248 680.316 L 412.248 680.316 L 412.248 680.316 Q 411.34 681.114 409.91 681.114 L 409.91 681.114 L 409.91 681.114 Q 408.425 681.114 407.573 680.316 L 407.573 680.316 L 407.573 680.316 Q 406.72 679.519 406.72 678.144 L 406.72 678.144 L 406.72 678.144 Z  M 413.155 662.139 L 424.595 662.139 L 424.595 662.139 Q 429.875 662.139 432.048 660.461 L 432.048 660.461 L 432.048 660.461 Q 434.22 658.784 434.22 654.659 L 434.22 654.659 L 434.22 654.659 Q 434.22 650.644 431.855 648.884 L 431.855 648.884 L 431.855 648.884 Q 429.49 647.124 424.595 647.124 L 424.595 647.124 L 415.63 647.124 L 415.63 647.124 Q 414.475 647.124 413.815 647.866 L 413.815 647.866 L 413.815 647.866 Q 413.155 648.609 413.155 649.929 L 413.155 649.929 L 413.155 662.139 L 413.155 662.139 Z  M 461.065 680.564 L 461.065 680.564 Q 457.16 680.564 454.988 678.501 L 454.988 678.501 L 454.988 678.501 Q 452.815 676.439 452.815 672.754 L 452.815 672.754 L 452.815 649.709 L 452.815 649.709 Q 452.815 646.134 454.905 644.099 L 454.905 644.099 L 454.905 644.099 Q 456.995 642.064 460.735 642.064 L 460.735 642.064 L 477.84 642.064 L 477.84 642.064 Q 479.27 642.064 480.04 642.696 L 480.04 642.696 L 480.04 642.696 Q 480.81 643.329 480.81 644.539 L 480.81 644.539 L 480.81 644.539 Q 480.81 645.694 480.04 646.326 L 480.04 646.326 L 480.04 646.326 Q 479.27 646.959 477.84 646.959 L 477.84 646.959 L 461.615 646.959 L 461.615 646.959 Q 460.405 646.959 459.745 647.729 L 459.745 647.729 L 459.745 647.729 Q 459.085 648.499 459.085 649.819 L 459.085 649.819 L 459.085 658.454 L 473.66 658.454 L 473.66 658.454 Q 475.09 658.454 475.86 659.086 L 475.86 659.086 L 475.86 659.086 Q 476.63 659.719 476.63 660.929 L 476.63 660.929 L 476.63 660.929 Q 476.63 662.084 475.86 662.716 L 475.86 662.716 L 475.86 662.716 Q 475.09 663.349 473.66 663.349 L 473.66 663.349 L 459.085 663.349 L 459.085 672.809 L 459.085 672.809 Q 459.085 674.129 459.745 674.899 L 459.745 674.899 L 459.745 674.899 Q 460.405 675.669 461.615 675.669 L 461.615 675.669 L 479.05 675.669 L 479.05 675.669 Q 480.48 675.669 481.25 676.301 L 481.25 676.301 L 481.25 676.301 Q 482.02 676.934 482.02 678.144 L 482.02 678.144 L 482.02 678.144 Q 482.02 679.299 481.25 679.931 L 481.25 679.931 L 481.25 679.931 Q 480.48 680.564 479.05 680.564 L 479.05 680.564 L 461.065 680.564 L 461.065 680.564 Z  M 497.04 681.059 L 497.04 681.059 Q 495.61 681.059 494.785 680.289 L 494.785 680.289 L 494.785 680.289 Q 493.96 679.519 493.96 678.144 L 493.96 678.144 L 493.96 658.124 L 493.96 658.124 Q 493.96 650.314 498.415 645.914 L 498.415 645.914 L 498.415 645.914 Q 502.87 641.514 510.79 641.514 L 510.79 641.514 L 510.79 641.514 Q 515.96 641.514 519.755 643.521 L 519.755 643.521 L 519.755 643.521 Q 523.55 645.529 525.558 649.269 L 525.558 649.269 L 525.558 649.269 Q 527.565 653.009 527.565 658.124 L 527.565 658.124 L 527.565 678.144 L 527.565 678.144 Q 527.565 679.519 526.74 680.289 L 526.74 680.289 L 526.74 680.289 Q 525.915 681.059 524.485 681.059 L 524.485 681.059 L 524.485 681.059 Q 523.055 681.059 522.175 680.261 L 522.175 680.261 L 522.175 680.261 Q 521.295 679.464 521.295 678.144 L 521.295 678.144 L 521.295 668.024 L 500.23 668.024 L 500.23 678.144 L 500.23 678.144 Q 500.23 679.464 499.35 680.261 L 499.35 680.261 L 499.35 680.261 Q 498.47 681.059 497.04 681.059 L 497.04 681.059 L 497.04 681.059 Z  M 500.23 663.129 L 521.295 663.129 L 521.295 657.959 L 521.295 657.959 Q 521.295 652.349 518.628 649.434 L 518.628 649.434 L 518.628 649.434 Q 515.96 646.519 510.79 646.519 L 510.79 646.519 L 510.79 646.519 Q 505.565 646.519 502.898 649.406 L 502.898 649.406 L 502.898 649.406 Q 500.23 652.294 500.23 657.959 L 500.23 657.959 L 500.23 663.129 L 500.23 663.129 Z  M 548.58 680.564 L 548.58 680.564 Q 544.73 680.564 542.558 678.501 L 542.558 678.501 L 542.558 678.501 Q 540.385 676.439 540.385 672.754 L 540.385 672.754 L 540.385 644.429 L 540.385 644.429 Q 540.385 643.054 541.21 642.284 L 541.21 642.284 L 541.21 642.284 Q 542.035 641.514 543.465 641.514 L 543.465 641.514 L 543.465 641.514 Q 544.895 641.514 545.748 642.311 L 545.748 642.311 L 545.748 642.311 Q 546.6 643.109 546.6 644.429 L 546.6 644.429 L 546.6 672.809 L 546.6 672.809 Q 546.6 674.129 547.288 674.899 L 547.288 674.899 L 547.288 674.899 Q 547.975 675.669 549.185 675.669 L 549.185 675.669 L 567.005 675.669 L 567.005 675.669 Q 569.975 675.669 569.975 678.144 L 569.975 678.144 L 569.975 678.144 Q 569.975 679.299 569.205 679.931 L 569.205 679.931 L 569.205 679.931 Q 568.435 680.564 567.005 680.564 L 567.005 680.564 L 548.58 680.564 L 548.58 680.564 Z  M 587.855 681.114 L 587.855 681.114 Q 586.425 681.114 585.573 680.344 L 585.573 680.344 L 585.573 680.344 Q 584.72 679.574 584.72 678.199 L 584.72 678.199 L 584.72 646.959 L 573.445 646.959 L 573.445 646.959 Q 572.015 646.959 571.245 646.326 L 571.245 646.326 L 571.245 646.326 Q 570.475 645.694 570.475 644.539 L 570.475 644.539 L 570.475 644.539 Q 570.475 643.329 571.245 642.696 L 571.245 642.696 L 571.245 642.696 Q 572.015 642.064 573.445 642.064 L 573.445 642.064 L 602.265 642.064 L 602.265 642.064 Q 603.695 642.064 604.493 642.696 L 604.493 642.696 L 604.493 642.696 Q 605.29 643.329 605.29 644.539 L 605.29 644.539 L 605.29 644.539 Q 605.29 645.694 604.493 646.326 L 604.493 646.326 L 604.493 646.326 Q 603.695 646.959 602.265 646.959 L 602.265 646.959 L 590.99 646.959 L 590.99 678.199 L 590.99 678.199 Q 590.99 679.519 590.138 680.316 L 590.138 680.316 L 590.138 680.316 Q 589.285 681.114 587.855 681.114 L 587.855 681.114 L 587.855 681.114 Z  M 646.875 641.514 L 646.875 641.514 Q 648.305 641.514 649.13 642.284 L 649.13 642.284 L 649.13 642.284 Q 649.955 643.054 649.955 644.429 L 649.955 644.429 L 649.955 650.589 L 649.955 650.589 Q 649.955 657.849 646.243 662.469 L 646.243 662.469 L 646.243 662.469 Q 642.53 667.089 635.985 668.024 L 635.985 668.024 L 635.985 678.199 L 635.985 678.199 Q 635.985 679.519 635.133 680.316 L 635.133 680.316 L 635.133 680.316 Q 634.28 681.114 632.85 681.114 L 632.85 681.114 L 632.85 681.114 Q 631.42 681.114 630.568 680.344 L 630.568 680.344 L 630.568 680.344 Q 629.715 679.574 629.715 678.199 L 629.715 678.199 L 629.715 668.024 L 629.715 668.024 Q 623.115 667.089 619.403 662.524 L 619.403 662.524 L 619.403 662.524 Q 615.69 657.959 615.69 650.589 L 615.69 650.589 L 615.69 644.429 L 615.69 644.429 Q 615.69 643.054 616.543 642.284 L 616.543 642.284 L 616.543 642.284 Q 617.395 641.514 618.825 641.514 L 618.825 641.514 L 618.825 641.514 Q 620.255 641.514 621.108 642.311 L 621.108 642.311 L 621.108 642.311 Q 621.96 643.109 621.96 644.429 L 621.96 644.429 L 621.96 650.754 L 621.96 650.754 Q 621.96 656.749 624.793 659.994 L 624.793 659.994 L 624.793 659.994 Q 627.625 663.239 632.85 663.239 L 632.85 663.239 L 632.85 663.239 Q 638.02 663.239 640.853 659.966 L 640.853 659.966 L 640.853 659.966 Q 643.685 656.694 643.685 650.754 L 643.685 650.754 L 643.685 644.429 L 643.685 644.429 Q 643.685 643.109 644.565 642.311 L 644.565 642.311 L 644.565 642.311 Q 645.445 641.514 646.875 641.514 L 646.875 641.514 L 646.875 641.514 Z  M 167.435 681.114 L 167.435 681.114 Q 161.33 681.114 156.738 678.639 L 156.738 678.639 L 156.738 678.639 Q 152.145 676.164 149.67 671.654 L 149.67 671.654 L 149.67 671.654 Q 147.195 667.144 147.195 661.314 L 147.195 661.314 L 147.195 661.314 Q 147.195 655.484 149.67 650.974 L 149.67 650.974 L 149.67 650.974 Q 152.145 646.464 156.738 643.989 L 156.738 643.989 L 156.738 643.989 Q 161.33 641.514 167.435 641.514 L 167.435 641.514 L 167.435 641.514 Q 173.54 641.514 178.133 643.989 L 178.133 643.989 L 178.133 643.989 Q 182.725 646.464 185.2 650.974 L 185.2 650.974 L 185.2 650.974 Q 187.675 655.484 187.675 661.314 L 187.675 661.314 L 187.675 661.314 Q 187.675 667.144 185.2 671.654 L 185.2 671.654 L 185.2 671.654 Q 182.725 676.164 178.133 678.639 L 178.133 678.639 L 178.133 678.639 Q 173.54 681.114 167.435 681.114 L 167.435 681.114 L 167.435 681.114 Z  M 167.435 676.109 L 167.435 676.109 Q 173.87 676.109 177.61 672.149 L 177.61 672.149 L 177.61 672.149 Q 181.35 668.189 181.35 661.314 L 181.35 661.314 L 181.35 661.314 Q 181.35 654.384 177.528 650.451 L 177.528 650.451 L 177.528 650.451 Q 173.705 646.519 167.105 646.519 L 167.105 646.519 L 167.105 646.519 Q 162.925 646.519 159.845 648.334 L 159.845 648.334 L 159.845 648.334 Q 156.765 650.149 155.115 653.504 L 155.115 653.504 L 155.115 653.504 Q 153.465 656.859 153.465 661.314 L 153.465 661.314 L 153.465 661.314 Q 153.465 665.879 155.17 669.206 L 155.17 669.206 L 155.17 669.206 Q 156.875 672.534 160.01 674.321 L 160.01 674.321 L 160.01 674.321 Q 163.145 676.109 167.435 676.109 L 167.435 676.109 L 167.435 676.109 Z  M 199.78 678.144 L 199.78 649.764 L 199.78 649.764 Q 199.78 646.189 201.87 644.126 L 201.87 644.126 L 201.87 644.126 Q 203.96 642.064 207.755 642.064 L 207.755 642.064 L 217.71 642.064 L 217.71 642.064 Q 225.685 642.064 229.728 645.254 L 229.728 645.254 L 229.728 645.254 Q 233.77 648.444 233.77 654.659 L 233.77 654.659 L 233.77 654.659 Q 233.77 660.544 230.195 663.789 L 230.195 663.789 L 230.195 663.789 Q 226.62 667.034 220.295 667.034 L 220.295 667.034 L 229.425 676.274 L 229.425 676.274 Q 230.305 677.154 230.305 678.199 L 230.305 678.199 L 230.305 678.199 Q 230.305 679.354 229.205 680.289 L 229.205 680.289 L 229.205 680.289 Q 228.16 681.059 227.17 681.059 L 227.17 681.059 L 227.17 681.059 Q 225.795 681.059 224.53 679.739 L 224.53 679.739 L 212.43 667.199 L 206.215 667.199 L 206.215 678.144 L 206.215 678.144 Q 206.215 679.519 205.308 680.316 L 205.308 680.316 L 205.308 680.316 Q 204.4 681.114 202.97 681.114 L 202.97 681.114 L 202.97 681.114 Q 201.485 681.114 200.633 680.316 L 200.633 680.316 L 200.633 680.316 Q 199.78 679.519 199.78 678.144 L 199.78 678.144 L 199.78 678.144 Z  M 206.215 662.139 L 217.655 662.139 L 217.655 662.139 Q 222.935 662.139 225.108 660.461 L 225.108 660.461 L 225.108 660.461 Q 227.28 658.784 227.28 654.659 L 227.28 654.659 L 227.28 654.659 Q 227.28 650.644 224.915 648.884 L 224.915 648.884 L 224.915 648.884 Q 222.55 647.124 217.655 647.124 L 217.655 647.124 L 208.69 647.124 L 208.69 647.124 Q 207.535 647.124 206.875 647.866 L 206.875 647.866 L 206.875 647.866 Q 206.215 648.609 206.215 649.929 L 206.215 649.929 L 206.215 662.139 L 206.215 662.139 Z  M 250.66 681.114 L 250.66 681.114 Q 249.23 681.114 248.378 680.344 L 248.378 680.344 L 248.378 680.344 Q 247.525 679.574 247.525 678.199 L 247.525 678.199 L 247.525 644.429 L 247.525 644.429 Q 247.525 643.054 248.378 642.284 L 248.378 642.284 L 248.378 642.284 Q 249.23 641.514 250.66 641.514 L 250.66 641.514 L 250.66 641.514 Q 252.035 641.514 252.915 642.311 L 252.915 642.311 L 252.915 642.311 Q 253.795 643.109 253.795 644.429 L 253.795 644.429 L 253.795 678.199 L 253.795 678.199 Q 253.795 679.519 252.915 680.316 L 252.915 680.316 L 252.915 680.316 Q 252.035 681.114 250.66 681.114 L 250.66 681.114 L 250.66 681.114 Z  M 287.515 681.114 L 287.515 681.114 Q 281.41 681.114 276.928 678.721 L 276.928 678.721 L 276.928 678.721 Q 272.445 676.329 270.053 671.874 L 270.053 671.874 L 270.053 671.874 Q 267.66 667.419 267.66 661.369 L 267.66 661.369 L 267.66 661.369 Q 267.66 655.319 270.053 650.836 L 270.053 650.836 L 270.053 650.836 Q 272.445 646.354 276.928 643.934 L 276.928 643.934 L 276.928 643.934 Q 281.41 641.514 287.46 641.514 L 287.46 641.514 L 287.46 641.514 Q 292.41 641.514 296.645 643.219 L 296.645 643.219 L 296.645 643.219 Q 300.88 644.924 303.025 647.784 L 303.025 647.784 L 303.025 647.784 Q 303.575 648.554 303.575 649.434 L 303.575 649.434 L 303.575 649.434 Q 303.575 650.699 302.365 651.579 L 302.365 651.579 L 302.365 651.579 Q 301.65 652.019 300.88 652.019 L 300.88 652.019 L 300.88 652.019 Q 300.165 652.019 299.477 651.689 L 299.477 651.689 L 299.477 651.689 Q 298.79 651.359 298.295 650.809 L 298.295 650.809 L 298.295 650.809 Q 296.48 648.664 293.813 647.591 L 293.813 647.591 L 293.813 647.591 Q 291.145 646.519 287.46 646.519 L 287.46 646.519 L 287.46 646.519 Q 281.135 646.519 277.533 650.451 L 277.533 650.451 L 277.533 650.451 Q 273.93 654.384 273.93 661.369 L 273.93 661.369 L 273.93 661.369 Q 273.93 668.299 277.533 672.204 L 277.533 672.204 L 277.533 672.204 Q 281.135 676.109 287.515 676.109 L 287.515 676.109 L 287.515 676.109 Q 292.74 676.109 295.793 673.964 L 295.793 673.964 L 295.793 673.964 Q 298.845 671.819 298.845 668.134 L 298.845 668.134 L 298.845 666.704 L 298.845 666.704 Q 298.845 665.439 298.323 664.944 L 298.323 664.944 L 298.323 664.944 Q 297.8 664.449 296.37 664.449 L 296.37 664.449 L 288.78 664.449 L 288.78 664.449 Q 287.405 664.449 286.663 663.816 L 286.663 663.816 L 286.663 663.816 Q 285.92 663.184 285.92 662.029 L 285.92 662.029 L 285.92 662.029 Q 285.92 660.819 286.663 660.159 L 286.663 660.159 L 286.663 660.159 Q 287.405 659.499 288.78 659.499 L 288.78 659.499 L 298.955 659.499 L 298.955 659.499 Q 302.09 659.499 303.602 660.874 L 303.602 660.874 L 303.602 660.874 Q 305.115 662.249 305.115 665.109 L 305.115 665.109 L 305.115 667.254 L 305.115 667.254 Q 305.115 671.269 302.86 674.404 L 302.86 674.404 L 302.86 674.404 Q 300.605 677.539 296.59 679.326 L 296.59 679.326 L 296.59 679.326 Q 292.575 681.114 287.515 681.114 L 287.515 681.114 L 287.515 681.114 Z  M 322.115 681.114 L 322.115 681.114 Q 320.685 681.114 319.833 680.344 L 319.833 680.344 L 319.833 680.344 Q 318.98 679.574 318.98 678.199 L 318.98 678.199 L 318.98 644.429 L 318.98 644.429 Q 318.98 643.054 319.833 642.284 L 319.833 642.284 L 319.833 642.284 Q 320.685 641.514 322.115 641.514 L 322.115 641.514 L 322.115 641.514 Q 323.49 641.514 324.37 642.311 L 324.37 642.311 L 324.37 642.311 Q 325.25 643.109 325.25 644.429 L 325.25 644.429 L 325.25 678.199 L 325.25 678.199 Q 325.25 679.519 324.37 680.316 L 324.37 680.316 L 324.37 680.316 Q 323.49 681.114 322.115 681.114 L 322.115 681.114 L 322.115 681.114 Z  M 342.745 681.114 L 342.745 681.114 Q 341.315 681.114 340.49 680.344 L 340.49 680.344 L 340.49 680.344 Q 339.665 679.574 339.665 678.199 L 339.665 678.199 L 339.665 656.859 L 339.665 656.859 Q 339.665 649.654 344.148 645.584 L 344.148 645.584 L 344.148 645.584 Q 348.63 641.514 356.495 641.514 L 356.495 641.514 L 356.495 641.514 Q 361.665 641.514 365.46 643.356 L 365.46 643.356 L 365.46 643.356 Q 369.255 645.199 371.263 648.664 L 371.263 648.664 L 371.263 648.664 Q 373.27 652.129 373.27 656.859 L 373.27 656.859 L 373.27 678.199 L 373.27 678.199 Q 373.27 679.574 372.445 680.344 L 372.445 680.344 L 372.445 680.344 Q 371.62 681.114 370.19 681.114 L 370.19 681.114 L 370.19 681.114 Q 368.76 681.114 367.908 680.316 L 367.908 680.316 L 367.908 680.316 Q 367.055 679.519 367.055 678.199 L 367.055 678.199 L 367.055 656.694 L 367.055 656.694 Q 367.055 651.799 364.305 649.159 L 364.305 649.159 L 364.305 649.159 Q 361.555 646.519 356.495 646.519 L 356.495 646.519 L 356.495 646.519 Q 351.435 646.519 348.658 649.186 L 348.658 649.186 L 348.658 649.186 Q 345.88 651.854 345.88 656.694 L 345.88 656.694 L 345.88 678.199 L 345.88 678.199 Q 345.88 679.519 345.028 680.316 L 345.028 680.316 L 345.028 680.316 Q 344.175 681.114 342.745 681.114 L 342.745 681.114 L 342.745 681.114 Z " fill="rgb(70,70,70)"/></g></svg>